<?xml version="1.0" standalone="no"?><!-- Generator: Gravit.io --><svg xmlns="http://www.w3.org/2000/svg" xmlns:xlink="http://www.w3.org/1999/xlink" style="isolation:isolate" viewBox="0 0 900 600" width="900" height="600"><path d=" M 674.898 473.031 L 674.898 473.031 L 674.898 473.031 Q 674.898 463.031 671.93 459.535 L 671.93 459.535 L 671.93 459.535 Q 668.961 456.039 663.492 456.039 L 663.492 456.039 L 663.492 456.039 Q 655.914 456.039 653.688 463.539 L 653.688 463.539 L 653.688 463.539 Q 652.477 467.641 652.477 473.422 L 652.477 473.422 L 652.477 473.422 Q 652.477 490.219 663.492 490.219 L 663.492 490.219 L 663.492 490.219 Q 674.898 490.219 674.898 473.031 Z  M 674.898 457.758 L 674.898 457.758 L 674.898 434.359 L 682.008 433.578 L 682.008 494.711 L 674.898 494.711 L 674.898 488.07 L 674.898 488.07 Q 670.563 495.688 662.633 495.688 L 662.633 495.688 L 662.633 495.688 Q 653.57 495.688 649.449 489.203 L 649.449 489.203 L 649.449 489.203 Q 645.328 482.719 645.328 472.914 L 645.328 472.914 L 645.328 472.914 Q 645.328 461.117 651.344 454.945 L 651.344 454.945 L 651.344 454.945 Q 655.563 450.57 662.672 450.57 L 662.672 450.57 L 662.672 450.57 Q 667.516 450.57 670.543 452.563 L 670.543 452.563 L 670.543 452.563 Q 673.57 454.555 674.898 457.758 Z  M 709.82 470.883 L 709.82 494.711 L 702.711 494.711 L 702.711 451.859 L 708.531 451.859 L 709.117 459.789 L 709.117 459.789 Q 711.734 455.258 715.992 452.914 L 715.992 452.914 L 715.992 452.914 Q 720.25 450.57 725.641 450.57 L 725.641 450.57 L 729.078 450.57 L 729.078 457.172 L 724.625 457.172 L 724.625 457.172 Q 717.789 457.172 713.805 460.59 L 713.805 460.59 L 713.805 460.59 Q 709.82 464.008 709.82 470.883 L 709.82 470.883 L 709.82 470.883 Z  M 777.203 451.859 L 777.203 480.805 L 777.203 480.805 Q 777.203 495.688 760.641 495.688 L 760.641 495.688 L 760.641 495.688 Q 744.078 495.688 744.078 480.805 L 744.078 480.805 L 744.078 451.859 L 751.188 451.859 L 751.188 481.43 L 751.188 481.43 Q 751.188 486 753.453 488.109 L 753.453 488.109 L 753.453 488.109 Q 755.719 490.219 760.641 490.219 L 760.641 490.219 L 760.641 490.219 Q 765.563 490.219 767.828 488.109 L 767.828 488.109 L 767.828 488.109 Q 770.094 486 770.094 481.43 L 770.094 481.43 L 770.094 451.859 L 777.203 451.859 L 777.203 451.859 Z  M 819.313 489.359 L 819.313 486.508 L 819.313 486.508 Q 817.984 489.867 814.625 492.289 L 814.625 492.289 L 814.625 492.289 Q 811.266 494.711 807.125 494.711 L 807.125 494.711 L 807.125 494.711 Q 799 494.711 794.273 488.402 L 794.273 488.402 L 794.273 488.402 Q 789.547 482.094 789.547 472.992 L 789.547 472.992 L 789.547 472.992 Q 789.547 460.805 795.641 454.789 L 795.641 454.789 L 795.641 454.789 Q 799.977 450.57 807.477 450.57 L 807.477 450.57 L 807.477 450.57 Q 814.977 450.57 819.313 457.68 L 819.313 457.68 L 819.547 451.859 L 826.773 451.859 L 826.773 451.859 Q 826.422 461.43 826.422 477.289 L 826.422 477.289 L 826.422 488.773 L 826.422 488.773 Q 826.422 502.602 820.406 507.602 L 820.406 507.602 L 820.406 507.602 Q 816.109 511.234 807.359 512.211 L 807.359 512.211 L 807.359 512.211 Q 803.063 512.719 797.203 512.719 L 797.203 512.719 L 796.617 507.25 L 796.617 507.25 Q 805.133 507.25 808.824 506.234 L 808.824 506.234 L 808.824 506.234 Q 812.516 505.219 814.195 503.969 L 814.195 503.969 L 814.195 503.969 Q 815.875 502.719 817.086 500.727 L 817.086 500.727 L 817.086 500.727 Q 819.313 497.016 819.313 489.359 L 819.313 489.359 L 819.313 489.359 Z  M 815.934 459.418 L 815.934 459.418 L 815.934 459.418 Q 814.703 457.875 812.672 456.957 L 812.672 456.957 L 812.672 456.957 Q 810.641 456.039 807.965 456.039 L 807.965 456.039 L 807.965 456.039 Q 805.289 456.039 803.258 456.977 L 803.258 456.977 L 803.258 456.977 Q 799.547 458.656 798.121 462.875 L 798.121 462.875 L 798.121 462.875 Q 796.695 467.094 796.695 471.332 L 796.695 471.332 L 796.695 471.332 Q 796.695 475.57 797.047 477.68 L 797.047 477.68 L 797.047 477.68 Q 797.75 482.25 800.328 485.316 L 800.328 485.316 L 800.328 485.316 Q 802.906 488.383 807.633 488.383 L 807.633 488.383 L 807.633 488.383 Q 815.133 488.383 817.828 481.664 L 817.828 481.664 L 817.828 481.664 Q 819.313 477.992 819.313 474.066 L 819.313 474.066 L 819.313 474.066 Q 819.313 470.141 819.02 467.797 L 819.02 467.797 L 819.02 467.797 Q 818.727 465.453 817.945 463.207 L 817.945 463.207 L 817.945 463.207 Q 817.164 460.961 815.934 459.418 Z  M 854.898 495.18 L 845.445 495.18 L 845.445 486.273 L 854.898 486.273 L 854.898 495.18 L 854.898 495.18 Z  M 849.273 431.977 L 849.273 431.977 L 849.273 431.977 Q 865.289 431.977 869.039 440.961 L 869.039 440.961 L 869.039 440.961 Q 870.094 443.461 870.094 446.254 L 870.094 446.254 L 870.094 446.254 Q 870.094 449.047 869.156 451.313 L 869.156 451.313 L 869.156 451.313 Q 868.219 453.578 866.715 455.395 L 866.715 455.395 L 866.715 455.395 Q 865.211 457.211 863.395 458.93 L 863.395 458.93 L 863.395 458.93 Q 861.578 460.648 859.762 462.289 L 859.762 462.289 L 859.762 462.289 Q 857.945 463.93 856.461 465.57 L 856.461 465.57 L 856.461 465.57 Q 853.063 469.242 853.063 472.992 L 853.063 472.992 L 853.063 472.992 Q 853.063 475.219 853.805 479.086 L 853.805 479.086 L 846.695 479.086 L 846.695 479.086 Q 846.266 475.727 846.266 472.484 L 846.266 472.484 L 846.227 472.445 L 846.227 472.445 Q 846.227 467.641 849.352 464.164 L 849.352 464.164 L 849.352 464.164 Q 851.383 461.859 854.449 459.398 L 854.449 459.398 L 854.449 459.398 Q 857.516 456.938 859.039 455.414 L 859.039 455.414 L 859.039 455.414 Q 862.828 451.547 862.828 446.977 L 862.828 446.977 L 862.828 446.977 Q 862.828 440.297 854.898 438.539 L 854.898 438.539 L 854.898 438.539 Q 852.672 438.031 850.094 438.031 L 850.094 438.031 L 850.094 438.031 Q 844.547 438.031 839.195 440.922 L 839.195 440.922 L 839.195 434.75 L 839.195 434.75 Q 845.055 431.977 849.273 431.977 Z  M 522.672 457.211 L 522.672 457.211 L 522.672 457.211 Q 525.25 450.57 531.695 450.57 L 531.695 450.57 L 531.695 450.57 Q 539.859 450.57 540.914 462.328 L 540.914 462.328 L 540.914 462.328 Q 541.109 464.516 541.109 467.25 L 541.109 467.25 L 541.109 494.711 L 534.586 494.711 L 534.586 468.07 L 534.586 468.07 Q 534.586 460.375 533.57 458.52 L 533.57 458.52 L 533.57 458.52 Q 532.555 456.664 531.715 456.352 L 531.715 456.352 L 531.715 456.352 Q 530.875 456.039 529.859 456.039 L 529.859 456.039 L 529.859 456.039 Q 526.422 456.039 524.977 459.867 L 524.977 459.867 L 524.977 459.867 Q 524.039 462.328 524.039 468.148 L 524.039 468.148 L 524.039 494.711 L 518.063 494.711 L 518.063 468.578 L 518.063 468.578 Q 518.063 459.945 516.031 457.367 L 516.031 457.367 L 516.031 457.367 Q 514.977 456.039 513.004 456.039 L 513.004 456.039 L 513.004 456.039 Q 511.031 456.039 509.625 457.758 L 509.625 457.758 L 509.625 457.758 Q 507.008 460.961 507.008 466.547 L 507.008 466.547 L 507.008 494.711 L 500.484 494.711 L 500.484 451.859 L 506.148 451.859 L 506.578 457.523 L 506.578 457.523 Q 507.711 454.594 509.703 452.582 L 509.703 452.582 L 509.703 452.582 Q 511.695 450.57 514.684 450.57 L 514.684 450.57 L 514.684 450.57 Q 517.672 450.57 519.762 452.328 L 519.762 452.328 L 519.762 452.328 Q 521.852 454.086 522.672 457.211 Z  M 556.148 451.859 L 569.742 486.586 L 581.07 451.859 L 588.844 451.859 L 588.844 451.859 Q 576.969 485.375 574.82 490.902 L 574.82 490.902 L 574.82 490.902 Q 572.672 496.43 571.891 498.422 L 571.891 498.422 L 571.891 498.422 Q 571.109 500.414 570.133 502.523 L 570.133 502.523 L 570.133 502.523 Q 569.156 504.633 567.828 506.371 L 567.828 506.371 L 567.828 506.371 Q 566.5 508.109 565.309 508.949 L 565.309 508.949 L 565.309 508.949 Q 564.117 509.789 561.559 510.512 L 561.559 510.512 L 561.559 510.512 Q 559 511.234 552.047 511.234 L 552.047 511.234 L 551.227 505.258 L 551.227 505.258 Q 556.422 505.258 557.457 505.023 L 557.457 505.023 L 557.457 505.023 Q 558.492 504.789 559.43 504.496 L 559.43 504.496 L 559.43 504.496 Q 560.367 504.203 560.836 503.793 L 560.836 503.793 L 560.836 503.793 Q 561.305 503.383 562.008 502.719 L 562.008 502.719 L 562.008 502.719 Q 563.805 500.961 566.031 493.773 L 566.031 493.773 L 566.031 493.773 Q 555.016 468.461 550.133 456.117 L 550.133 456.117 L 548.453 451.859 L 556.148 451.859 L 556.148 451.859 Z  M 373.57 440.57 L 373.57 440.57 L 373.57 436.703 L 373.57 436.703 Q 373.57 435.297 375.152 434.223 L 375.152 434.223 L 375.152 434.223 Q 376.734 433.148 378.297 433.148 L 378.297 433.148 L 378.297 433.148 Q 379.859 433.148 381.441 434.223 L 381.441 434.223 L 381.441 434.223 Q 383.023 435.297 383.023 436.703 L 383.023 436.703 L 383.023 440.57 L 383.023 440.57 Q 383.023 441.977 381.441 443.051 L 381.441 443.051 L 381.441 443.051 Q 379.859 444.125 378.297 444.125 L 378.297 444.125 L 378.297 444.125 Q 376.734 444.125 375.152 443.051 L 375.152 443.051 L 375.152 443.051 Q 373.57 441.977 373.57 440.57 Z  M 374.742 457.328 L 362.516 457.328 L 362.516 451.859 L 381.852 451.859 L 381.852 489.242 L 394.117 489.242 L 394.117 494.711 L 361.148 494.711 L 361.148 489.242 L 374.742 489.242 L 374.742 457.328 L 374.742 457.328 Z  M 428.414 450.57 L 428.414 450.57 L 428.414 450.57 Q 441.734 450.57 441.734 467.445 L 441.734 467.445 L 441.734 494.711 L 434.625 494.711 L 434.625 468.305 L 434.625 468.305 Q 434.625 463.773 434.156 461.82 L 434.156 461.82 L 434.156 461.82 Q 433.688 459.867 432.75 458.617 L 432.75 458.617 L 432.75 458.617 Q 430.758 456.039 426.227 456.039 L 426.227 456.039 L 426.227 456.039 Q 421.656 456.039 418.492 458.695 L 418.492 458.695 L 418.492 458.695 Q 415.328 461.352 415.328 465.727 L 415.328 465.727 L 415.328 494.711 L 408.219 494.711 L 408.219 451.859 L 414.742 451.859 L 415.133 456.508 L 415.133 456.508 Q 419.391 450.57 428.414 450.57 Z  M 44.43 460.336 L 51.852 486.508 L 54.43 436.469 L 61.656 436.469 L 57.086 494.711 L 48.141 494.711 L 40.953 468.969 L 33.297 494.711 L 24.469 494.711 L 19.078 436.469 L 26.305 436.469 L 30.367 486.391 L 37.672 460.336 L 44.43 460.336 L 44.43 460.336 Z  M 105.289 468.852 L 105.289 468.852 L 105.289 494.711 L 98.18 494.711 L 98.18 469.75 L 98.18 469.75 Q 98.18 461.703 96.031 458.891 L 96.031 458.891 L 96.031 458.891 Q 93.883 456.039 89.547 456.039 L 89.547 456.039 L 89.547 456.039 Q 85.172 456.039 81.949 459.066 L 81.949 459.066 L 81.949 459.066 Q 78.727 462.094 78.727 465.57 L 78.727 465.57 L 78.727 494.711 L 71.617 494.711 L 71.617 434.359 L 78.727 433.578 L 78.727 457.055 L 78.727 457.055 Q 83.727 450.57 92.125 450.57 L 92.125 450.57 L 92.125 450.57 Q 105.289 450.57 105.289 468.852 Z  M 145.68 485.141 L 145.68 485.141 L 145.68 474.203 L 139.859 475.023 L 139.859 475.023 Q 133.766 475.883 131.422 476.742 L 131.422 476.742 L 131.422 476.742 Q 126.188 478.734 126.188 483.422 L 126.188 483.422 L 126.188 483.422 Q 126.188 486.664 128.063 488.578 L 128.063 488.578 L 128.063 488.578 Q 129.938 490.492 133.219 490.492 L 133.219 490.492 L 133.219 490.492 Q 140.445 490.492 145.68 485.141 Z  M 145.68 469.711 L 145.68 465.18 L 145.68 465.18 Q 145.68 456 137.906 456 L 137.906 456 L 137.906 456 Q 134.234 456 129.801 456.859 L 129.801 456.859 L 129.801 456.859 Q 125.367 457.719 123.57 458.5 L 123.57 458.5 L 121.891 453.266 L 121.891 453.266 Q 129.977 450.57 137.086 450.57 L 137.086 450.57 L 137.086 450.57 Q 144.195 450.57 148.492 453.813 L 148.492 453.813 L 148.492 453.813 Q 152.789 457.055 152.789 463.813 L 152.789 463.813 L 152.789 494.711 L 146.891 494.711 L 145.953 489.75 L 145.953 489.75 Q 143.453 492.289 139.527 493.988 L 139.527 493.988 L 139.527 493.988 Q 135.602 495.688 131.852 495.688 L 131.852 495.688 L 131.852 495.688 Q 126.422 495.688 122.828 492.426 L 122.828 492.426 L 122.828 492.426 Q 119.234 489.164 119.234 483.207 L 119.234 483.207 L 119.234 483.207 Q 119.234 477.25 123.922 474.477 L 123.922 474.477 L 123.922 474.477 Q 127.086 472.523 130.66 471.801 L 130.66 471.801 L 130.66 471.801 Q 134.234 471.078 139.977 470.375 L 139.977 470.375 L 145.68 469.711 L 145.68 469.711 Z  M 201.344 457.328 L 183.297 457.328 L 183.297 477.445 L 183.297 477.445 Q 183.297 481.195 183.707 483.383 L 183.707 483.383 L 183.707 483.383 Q 184.117 485.57 185.348 486.938 L 185.348 486.938 L 185.348 486.938 Q 186.578 488.305 188.531 488.773 L 188.531 488.773 L 188.531 488.773 Q 190.484 489.242 193.844 489.242 L 193.844 489.242 L 201.695 489.242 L 201.305 494.711 L 194.117 494.711 L 194.117 494.711 Q 183.063 494.711 179.391 490.648 L 179.391 490.648 L 179.391 490.648 Q 177.008 487.992 176.461 482.094 L 176.461 482.094 L 176.461 482.094 Q 176.188 479.477 176.188 475.648 L 176.188 475.648 L 176.188 457.328 L 164.078 457.328 L 164.859 451.859 L 176.188 451.859 L 176.188 437.094 L 183.297 434.984 L 183.297 451.859 L 201.344 451.859 L 201.344 457.328 L 201.344 457.328 Z  M 235.875 456.859 L 230.328 456.859 L 227.906 432.992 L 238.023 432.992 L 235.875 456.859 L 235.875 456.859 Z  M 285.758 470.375 L 285.758 470.375 Q 291.305 471.742 293.863 474.711 L 293.863 474.711 L 293.863 474.711 Q 296.422 477.68 296.422 483.285 L 296.422 483.285 L 296.422 483.285 Q 296.422 488.891 292.145 492.289 L 292.145 492.289 L 292.145 492.289 Q 287.867 495.688 281.422 495.688 L 281.422 495.688 L 281.422 495.688 Q 276.813 495.688 272.477 494.535 L 272.477 494.535 L 272.477 494.535 Q 268.141 493.383 266.07 491.82 L 266.07 491.82 L 267.828 486.703 L 267.828 486.703 Q 269.469 487.719 273.023 488.754 L 273.023 488.754 L 273.023 488.754 Q 276.578 489.789 280.738 489.789 L 280.738 489.789 L 280.738 489.789 Q 284.898 489.789 287.379 488.051 L 287.379 488.051 L 287.379 488.051 Q 289.859 486.313 289.859 483.422 L 289.859 483.422 L 289.859 483.422 Q 289.859 480.531 288.629 478.871 L 288.629 478.871 L 288.629 478.871 Q 287.398 477.211 283.883 476.352 L 283.883 476.352 L 276.617 474.594 L 276.617 474.594 Q 270.328 473.031 268.258 470.043 L 268.258 470.043 L 268.258 470.043 Q 266.188 467.055 266.188 462.602 L 266.188 462.602 L 266.188 462.602 Q 266.188 458.148 269.801 454.398 L 269.801 454.398 L 269.801 454.398 Q 273.414 450.648 280.328 450.57 L 280.328 450.57 L 280.836 450.57 L 280.836 450.57 Q 288.609 450.57 294.078 453.5 L 294.078 453.5 L 292.516 458.5 L 292.516 458.5 Q 286.813 456.078 280.953 456.078 L 280.953 456.078 L 280.953 456.078 Q 277.32 456.117 274.996 457.895 L 274.996 457.895 L 274.996 457.895 Q 272.672 459.672 272.672 462.367 L 272.672 462.367 L 272.672 462.367 Q 272.672 465.063 273.844 466.41 L 273.844 466.41 L 273.844 466.41 Q 275.016 467.758 278.297 468.539 L 278.297 468.539 L 285.758 470.375 L 285.758 470.375 Z " fill-rule="evenodd" fill="rgb(40,125,153)" vector-effect="non-scaling-stroke" stroke-width="3" stroke="rgb(36,112,137)" stroke-linejoin="miter" stroke-linecap="square" stroke-miterlimit="3"/><circle vector-effect="non-scaling-stroke" cx="0" cy="0" r="1" transform="matrix(12.389,0,0,12.389,414.258,349.462)" fill="rgb(127,219,213)"/><g><circle vector-effect="non-scaling-stroke" cx="0" cy="0" r="1" transform="matrix(11.788,0,0,11.788,466.152,363.675)" fill="rgb(56,100,140)"/><circle vector-effect="non-scaling-stroke" cx="0" cy="0" r="1" transform="matrix(11.788,0,0,11.788,429.602,295.441)" fill="rgb(56,100,140)"/></g><circle vector-effect="non-scaling-stroke" cx="0" cy="0" r="1" transform="matrix(14.857,0,0,14.857,475.075,317.432)" fill="rgb(127,219,213)"/><circle vector-effect="non-scaling-stroke" cx="0" cy="0" r="1" transform="matrix(15.916,0,0,15.916,429.602,400.084)" fill="rgb(242,139,116)"/><path d=" M 364.043 80.128 L 310.123 128.145 L 378.432 204.852 L 432.353 156.835 C 453.535 137.972 455.414 105.509 436.551 84.327 L 436.551 84.327 C 417.689 63.145 385.225 61.265 364.043 80.128 Z " fill="rgb(127,219,213)"/><path d=" M 256.203 176.162 L 310.123 128.145 L 378.433 204.853 L 324.513 252.87 C 303.331 271.732 270.868 269.853 252.004 248.671 L 252.004 248.671 C 233.14 227.488 235.021 195.025 256.203 176.162 Z " fill="rgb(40,125,153)"/><g opacity="0.1"><path d=" M 436.551 84.327 C 425.864 72.326 410.812 66.527 395.919 67.18 C 391.705 80.91 393.23 96.318 401.432 109.458 L 418.436 136.697 C 421.367 141.392 420.405 147.538 416.157 151.087 C 384.341 177.672 343.65 206.361 322.367 215.081 C 289.82 228.415 261.383 194.678 265.974 167.461 L 256.774 175.653 C 235.696 194.424 233.057 226.838 251.554 248.158 C 270.347 269.821 303.16 271.883 324.512 252.87 L 432.353 156.835 C 453.535 137.972 455.414 105.509 436.551 84.327 L 436.551 84.327 Z " fill="rgb(0,0,0)"/></g><path d=" M 414.601 92.721 L 452.836 153.968 L 539.966 99.574 L 501.73 38.328 C 486.71 14.268 455.029 6.94 430.969 21.96 L 430.969 21.96 C 406.909 36.98 399.581 68.661 414.601 92.721 Z " fill="rgb(118,183,235)"/><path d=" M 491.071 215.214 L 452.836 153.968 L 539.966 99.575 L 578.201 160.821 C 593.221 184.881 585.893 216.562 561.833 231.582 L 561.833 231.582 C 537.773 246.603 506.092 239.274 491.071 215.214 Z " fill="rgb(209,239,242)"/><g opacity="0.1"><path d=" M 561.833 231.582 C 564.145 230.139 566.299 228.539 568.297 226.81 C 507.242 217.837 427.65 72.09 431.236 21.802 C 431.148 21.856 431.058 21.905 430.969 21.96 L 430.969 21.96 C 406.909 36.98 399.581 68.661 414.601 92.721 L 491.071 215.214 C 506.092 239.274 537.773 246.603 561.833 231.582 L 561.833 231.582 Z " fill="rgb(0,0,0)"/></g><path d=" M 343.507 293.743 L 406.036 319.644 C 408.342 320.599 410.986 319.504 411.941 317.198 L 447.789 230.654 C 448.744 228.347 447.649 225.704 445.342 224.749 L 382.813 198.848 C 356.609 187.994 326.567 200.437 315.712 226.642 L 315.712 226.642 C 304.858 252.848 317.302 282.889 343.507 293.743 Z " fill="rgb(242,139,116)"/><g opacity="0.1"><path d=" M 411.942 317.198 L 420.771 295.884 C 346.918 281.829 322.121 238.183 327.9 208.96 C 322.787 213.783 318.577 219.728 315.713 226.642 L 315.713 226.642 C 304.859 252.847 317.302 282.889 343.507 293.743 L 406.037 319.644 C 408.343 320.6 410.986 319.504 411.942 317.198 Z " fill="rgb(0,0,0)"/></g><path d=" M 552.853 293.743 L 490.324 319.644 C 488.018 320.599 485.374 319.504 484.419 317.198 L 448.571 230.654 C 447.616 228.347 448.711 225.704 451.018 224.749 L 513.547 198.848 C 539.751 187.994 569.793 200.437 580.648 226.642 L 580.648 226.642 C 591.501 252.848 579.058 282.889 552.853 293.743 Z " fill="rgb(118,183,235)"/></svg>